<svg xmlns="http://www.w3.org/2000/svg" xmlns:xlink="http://www.w3.org/1999/xlink" width="428" height="395" viewBox="0 0 428 395"><defs><clipPath id="a"><rect width="428" height="395" transform="translate(0 531)" fill="#fff" stroke="#707070" stroke-width="1"/></clipPath></defs><g transform="translate(0 -531)" clip-path="url(#a)"><path d="M77.5,804.5V191.121c57.313-22.871,199.279-57.418,444.326,14.654,162.225,47.714,276.518,86.6,369.9,114.035,3.812.035,7.62.037,11.38,0,161.673-1.446,293.033-62.071,624.316-159.508,295.314-86.857,440.941-18.86,469.083-3.07V804.5Z" transform="translate(-925.5 330.266)" fill="#f9ea4a" stroke="rgba(0,0,0,0)" stroke-miterlimit="10" stroke-width="1"/><path d="M64.51,804.5V191.12c57.313-22.871,199.278-57.418,444.325,14.655,331.285,97.437,462.644,158.062,624.315,159.508s373.869-62.071,490.792-88.054c113.855-25.3,270.141-42.388,359.568,40.7V804.5Z" transform="translate(-972.51 300.531)" fill="#004ac1" stroke="rgba(0,0,0,0)" stroke-miterlimit="10" stroke-width="1"/></g></svg>